<svg width="32" height="32" viewBox="0 0 32 32" fill="none" xmlns="http://www.w3.org/2000/svg">
  <rect width="32" height="32" rx="8" fill="url(#paint0_linear)" />
  <path d="M16 22.4C15.68 22.4 15.41 22.29 15.2 22.08C14.99 21.87 14.88 21.6 14.88 21.28C14.88 20.96 14.99 20.69 15.2 20.48C15.41 20.27 15.68 20.16 16 20.16C16.32 20.16 16.59 20.27 16.8 20.48C17.01 20.69 17.12 20.96 17.12 21.28C17.12 21.6 17.01 21.87 16.8 22.08C16.59 22.29 16.32 22.4 16 22.4ZM13.92 10.88C13.92 9.76 14.27 8.91 14.96 8.32C15.65 7.73 16.51 7.44 17.52 7.44C18.48 7.44 19.25 7.68 19.84 8.16C20.43 8.64 20.72 9.28 20.72 10.08C20.72 10.61 20.59 11.09 20.32 11.52C20.05 11.95 19.6 12.4 18.96 12.88C18.32 13.36 17.89 13.76 17.68 14.08C17.47 14.4 17.36 14.83 17.36 15.36H15.6C15.6 14.72 15.73 14.19 16 13.76C16.27 13.33 16.75 12.85 17.44 12.32C18.04 11.89 18.45 11.57 18.64 11.36C18.83 11.15 18.92 10.91 18.92 10.64C18.92 10.27 18.79 9.95 18.51 9.68C18.24 9.41 17.87 9.28 17.4 9.28C16.21 9.28 15.57 9.89 15.49 11.12L13.66 10.72C13.76 9.76 14.13 9.04 14.72 8.48C15.31 7.92 16.16 7.64 17.25 7.64C18.33 7.64 19.17 7.92 19.81 8.48C20.45 9.04 20.77 9.76 20.77 10.64C20.77 11.36 20.44 12.04 19.77 12.69C19.1 13.33 18.41 13.94 17.71 14.51C17.29 14.92 17.04 15.24 16.91 15.48C16.78 15.71 16.72 16.05 16.72 16.51H15.04C15.04 15.93 15.26 15.41 15.69 14.93C16.13 14.45 16.72 13.94 17.47 13.39C18.1 12.93 18.51 12.61 18.67 12.43C18.83 12.25 18.93 12.03 18.93 11.77C18.93 11.4 18.77 11.09 18.45 10.93C18.13 10.77 17.75 10.69 17.31 10.69C16.47 10.69 15.97 11.04 15.79 11.73L13.92 10.88Z" fill="white"/>
  <defs>
    <linearGradient id="paint0_linear" x1="0" y1="0" x2="32" y2="32" gradientUnits="userSpaceOnUse">
      <stop stop-color="#3B82F6"/>
      <stop offset="1" stop-color="#06B6D4"/>
    </linearGradient>
  </defs>
</svg>
