<svg width="120" height="120" viewBox="0 0 120 120" fill="none" xmlns="http://www.w3.org/2000/svg">
  <!-- Background Circle with gradient -->
  <circle cx="60" cy="60" r="55" fill="url(#paint0_linear)" />
  
  <!-- Question mark -->
  <path d="M60 84C58.8 84 57.8 83.6 57 82.8C56.2 82 55.8 81 55.8 79.8C55.8 78.6 56.2 77.6 57 76.8C57.8 76 58.8 75.6 60 75.6C61.2 75.6 62.2 76 63 76.8C63.8 77.6 64.2 78.6 64.2 79.8C64.2 81 63.8 82 63 82.8C62.2 83.6 61.2 84 60 84ZM52.2 40.8C52.2 36.6 53.5 33.4 56.1 31.2C58.7 29 61.9 27.9 65.7 27.9C69.3 27.9 72.2 28.8 74.4 30.6C76.6 32.4 77.7 34.8 77.7 37.8C77.7 39.8 77.2 41.6 76.2 43.2C75.2 44.8 73.5 46.5 71.1 48.3C68.7 50.1 67.1 51.6 66.3 52.8C65.5 54 65.1 55.6 65.1 57.6H58.5C58.5 55.2 59 53.2 60 51.6C61 50 62.8 48.2 65.4 46.2C67.4 44.6 68.7 43.4 69.3 42.6C69.9 41.8 70.2 40.9 70.2 39.9C70.2 38.5 69.7 37.3 68.7 36.3C67.7 35.3 66.3 34.8 64.5 34.8C60.3 34.8 58 37.1 57.6 41.7L51.3 40.2C51.7 36.6 53 33.9 55.2 31.8C57.4 29.7 60.4 28.7 64.2 28.7C68 28.7 71 29.7 73.2 31.7C75.4 33.7 76.5 36.2 76.5 39.3C76.5 42.1 75.4 44.7 73.2 47.1C71 49.5 68.6 51.7 66 53.7C64.4 54.9 63.3 55.9 62.7 56.7C62.1 57.5 61.8 58.8 61.8 60.6H56.1C56.1 58.4 56.8 56.4 58.2 54.6C59.6 52.8 61.8 50.7 64.8 48.3C67.2 46.5 68.6 45.2 69 44.4C69.4 43.6 69.6 42.5 69.6 41.1C69.6 39.5 69 38.1 67.8 37.5C66.6 36.9 65.2 36.6 63.6 36.6C60.4 36.6 58.4 38.4 57.6 42L52.2 40.8Z" fill="white"/>
  
  <!-- Brain Icon -->
  <path d="M82 42.5C82 38.9 79.1 36 75.5 36C73.7 36 72 36.8 70.8 38.1C70 37.4 69 37 68 37C65.8 37 64 38.8 64 41C64 41.7 64.2 42.3 64.4 42.9C63.1 43.7 62 45.1 62 46.8C62 48.8 63.2 50.5 65 51.2C65 51.3 65 51.4 65 51.5C65 54.5 67.5 57 70.5 57C72.1 57 73.6 56.3 74.7 55.1C74.9 55.1 75.1 55.2 75.3 55.2C78.4 55.2 81 52.6 81 49.5C81 49.1 81 48.7 80.9 48.3C81.6 47.2 82 46 82 44.5C82 43.8 82 43.1 81.7 42.5" stroke="white" stroke-width="2" stroke-linecap="round" stroke-linejoin="round"/>
  
  <!-- Lightning Bolt -->
  <path d="M39 48L52 38L45 56L57 56L43 72L50 56L39 56L39 48Z" fill="#FFD600"/>
  
  <!-- Gradient definition -->
  <defs>
    <linearGradient id="paint0_linear" x1="20" y1="20" x2="100" y2="100" gradientUnits="userSpaceOnUse">
      <stop stop-color="#3B82F6"/>
      <stop offset="1" stop-color="#06B6D4"/>
    </linearGradient>
  </defs>
</svg>
